HIERARCHY
ROOT SpineBase
{
  OFFSET 0.000000 0.000000 0.000000
  CHANNELS 6 Xposition Yposition Zposition Zrotation Xrotation Yrotation
  JOINT SpineMid
  {
    OFFSET -0.000000 30.666751 0.000000
    CHANNELS 3 Zrotation Xrotation Yrotation
    JOINT SpineShoulder
    {
      OFFSET 0.353839 22.846286 -0.528413
      CHANNELS 3 Zrotation Xrotation Yrotation
      JOINT Neck
      {
        OFFSET 0.244050 7.573151 -0.434916
        CHANNELS 3 Zrotation Xrotation Yrotation
        JOINT Head
        {
          OFFSET 3.714356 13.145507 -1.067272
          CHANNELS 3 Zrotation Xrotation Yrotation
          End Site
          {
            OFFSET 0 0 0
          }
        }
      }
      JOINT ShoulderLeft
      {
        OFFSET -12.988761 -1.689995 -7.879243
        CHANNELS 3 Zrotation Xrotation Yrotation
        JOINT ElbowLeft
        {
          OFFSET -6.331991 -25.274925 -4.251320
          CHANNELS 3 Zrotation Xrotation Yrotation
          JOINT WristLeft
          {
            OFFSET 1.957979 -20.195903 -4.796466
            CHANNELS 3 Zrotation Xrotation Yrotation
            JOINT HandLeft
            {
              OFFSET 1.084452 -5.714064 -0.082630
              CHANNELS 3 Zrotation Xrotation Yrotation
              JOINT HandTipLeft
              {
                OFFSET 0.847464 -7.951780 -1.247513
                CHANNELS 3 Zrotation Xrotation Yrotation
                End Site
                {
                  OFFSET 0 0 0
                }
              }
              JOINT ThumbLeft
              {
                OFFSET -2.798652 0.650507 -2.100803
                CHANNELS 3 Zrotation Xrotation Yrotation
                End Site
                {
                  OFFSET 0 0 0
                }
              }
            }
          }
        }
      }
      JOINT ShoulderRight
      {
        OFFSET 15.738358 -2.279227 9.846581
        CHANNELS 3 Zrotation Xrotation Yrotation
        JOINT ElbowRight
        {
          OFFSET 3.782553 -26.064786 7.681588
          CHANNELS 3 Zrotation Xrotation Yrotation
          JOINT WristRight
          {
            OFFSET 2.078886 -21.523572 1.530810
            CHANNELS 3 Zrotation Xrotation Yrotation
            JOINT HandRight
            {
              OFFSET 1.290921 -8.671428 1.797783
              CHANNELS 3 Zrotation Xrotation Yrotation
              JOINT HandTipRight
              {
                OFFSET 1.025720 -7.944122 0.050770
                CHANNELS 3 Zrotation Xrotation Yrotation
                End Site
                {
                  OFFSET 0 0 0
                }
              }
              JOINT ThumbRight
              {
                OFFSET 4.021514 4.603519 -0.503942
                CHANNELS 3 Zrotation Xrotation Yrotation
                End Site
                {
                  OFFSET 0 0 0
                }
              }
            }
          }
        }
      }
    }
  }
  JOINT HipLeft
  {
    OFFSET -5.097032 1.424880 -6.741961
    CHANNELS 3 Zrotation Xrotation Yrotation
    JOINT KneeLeft
    {
      OFFSET -0.260588 -33.923414 -13.944223
      CHANNELS 3 Zrotation Xrotation Yrotation
      JOINT AnkleLeft
      {
        OFFSET -4.800617 -37.359903 -0.363187
        CHANNELS 3 Zrotation Xrotation Yrotation
        JOINT FootLeft
        {
          OFFSET 2.531746 -7.215546 -9.073600
          CHANNELS 3 Zrotation Xrotation Yrotation
          End Site
          {
            OFFSET 0 0 0
          }
        }
      }
    }
  }
  JOINT HipRight
  {
    OFFSET 7.393725 0.168025 0.326476
    CHANNELS 3 Zrotation Xrotation Yrotation
    JOINT KneeRight
    {
      OFFSET -3.437309 -34.932307 -0.749952
      CHANNELS 3 Zrotation Xrotation Yrotation
      JOINT AnkleRight
      {
        OFFSET -9.454244 -38.385002 10.379418
        CHANNELS 3 Zrotation Xrotation Yrotation
        JOINT FootRight
        {
          OFFSET 3.710163 -7.579369 -2.635527
          CHANNELS 3 Zrotation Xrotation Yrotation
          End Site
          {
            OFFSET 0 0 0
          }
        }
      }
    }
  }
}
MOTION
Frames: 14
Frame Time: 0.033333
-68.560793 76.526303 306.704931 -4.759189 -16.060362 -9.459295 0.554350 -0.498052 8.862209 0.488768 -0.325552 0.092067 9.534752 8.243834 0.760389 0.000000 0.000000 0.000000 20.521429 15.996959 -8.465490 61.074138 -21.831036 -2.840835 32.303002 19.495161 -7.968135 -6.951967 7.934654 -24.261801 0.000000 0.000000 0.000000 0.000000 0.000000 0.000000 -11.770316 52.744288 11.003688 8.444764 39.181247 10.085833 -0.015778 11.511720 8.557410 20.672206 -29.740202 16.380437 0.000000 0.000000 0.000000 0.000000 0.000000 0.000000 2.075576 6.678620 9.238628 9.421895 16.934250 -3.710716 -7.669616 3.192427 4.339577 0.000000 0.000000 0.000000 8.312421 12.236096 7.332677 5.646376 -4.632591 5.182443 -19.685966 38.148413 15.912245 0.000000 0.000000 0.000000
-68.508349 76.309496 303.216205 -3.817376 -15.581066 -9.923148 0.527446 -0.489621 9.499115 0.455291 -0.325796 0.121174 10.702599 7.868288 0.611131 0.000000 0.000000 0.000000 20.241711 15.768712 -8.597383 61.359531 -21.624247 -2.611523 28.607858 16.492400 -3.329196 -18.491166 7.096894 -16.922321 0.000000 0.000000 0.000000 0.000000 0.000000 0.000000 -9.701282 53.328031 10.208051 15.435146 46.391515 9.604828 -3.057532 6.422304 5.658274 14.421406 -34.114210 11.166994 0.000000 0.000000 0.000000 0.000000 0.000000 0.000000 2.124224 5.570004 9.446748 8.580815 14.596835 -2.789062 -7.863124 5.045239 3.745371 0.000000 0.000000 0.000000 7.432473 13.855210 7.794360 5.039743 -9.584147 6.580461 -17.401189 48.933399 18.642481 0.000000 0.000000 0.000000
-68.710845 76.216192 300.127835 -3.181715 -15.017680 -10.554332 0.514828 -0.466741 10.245711 0.424864 -0.317064 0.138080 11.646859 7.436445 0.529550 0.000000 0.000000 0.000000 19.130032 15.888550 -8.361550 62.902610 -21.554374 -2.170905 24.963358 13.824527 0.711859 -30.338278 6.645485 -10.167695 0.000000 0.000000 0.000000 0.000000 0.000000 0.000000 -6.053585 50.557441 7.863751 29.616416 57.799036 4.742610 -10.394226 0.973510 -2.159187 14.080673 -31.770918 11.183214 0.000000 0.000000 0.000000 0.000000 0.000000 0.000000 2.001737 4.794086 10.010402 8.468925 11.106208 -1.934245 -8.400231 7.644664 3.267420 0.000000 0.000000 0.000000 7.334117 17.146862 7.922443 3.923889 -15.857551 8.277337 -14.979221 59.812966 21.075353 0.000000 0.000000 0.000000
-69.234820 76.300349 296.802298 -3.053042 -14.528815 -10.521879 0.537421 -0.454965 10.238645 0.417555 -0.322496 0.137637 13.049447 6.486346 0.644825 0.000000 0.000000 0.000000 18.461751 15.901538 -8.131890 63.829522 -21.821051 -1.637830 23.905090 10.568113 3.858029 -32.235999 6.714711 -7.479464 0.000000 0.000000 0.000000 0.000000 0.000000 0.000000 -4.917645 49.728345 7.284607 50.939518 64.231753 -4.551716 -22.286766 -1.514249 -16.540936 23.934619 -19.339115 20.345973 0.000000 0.000000 0.000000 0.000000 0.000000 0.000000 2.412126 3.433041 9.850818 9.104260 8.718533 -1.433964 -9.601782 10.735556 3.323081 0.000000 0.000000 0.000000 8.158189 21.103275 6.999332 2.973900 -21.968586 9.944240 -14.123256 65.837724 22.425505 0.000000 0.000000 0.000000
-69.978223 76.646393 294.041089 -3.366611 -14.062818 -10.201095 0.563374 -0.464146 9.874933 0.425321 -0.337378 0.120907 14.273658 5.611639 0.804101 0.000000 0.000000 0.000000 17.872678 15.639441 -7.678201 65.609020 -22.687275 -1.107873 27.691567 14.271786 -1.083000 -40.367042 -0.713337 -3.735418 0.000000 0.000000 0.000000 0.000000 0.000000 0.000000 -4.636622 48.725149 7.066668 72.826433 67.488303 -16.329034 -77.916860 -1.364056 -75.125122 65.457314 57.595309 29.354757 0.000000 0.000000 0.000000 0.000000 0.000000 0.000000 3.103336 1.944638 9.409060 9.814046 6.870336 -1.093472 -11.279411 15.864191 4.965927 0.000000 0.000000 0.000000 9.944443 25.497116 5.372896 1.514759 -27.379087 11.100894 -10.000785 66.609809 18.966880 0.000000 0.000000 0.000000
-70.690181 76.927000 290.925938 -3.763683 -13.735678 -10.066068 0.585155 -0.436364 9.684755 0.427275 -0.327984 0.102673 15.441895 4.617559 1.052811 0.000000 0.000000 0.000000 16.916012 15.024179 -6.900408 66.836259 -22.618486 -1.848967 27.380480 11.978139 1.322137 -34.107532 6.100501 -8.103451 0.000000 0.000000 0.000000 0.000000 0.000000 0.000000 -4.741356 47.141144 6.817966 94.064608 69.021856 -30.101293 -152.792752 19.730822 -114.277074 -157.342582 9.257582 -98.993899 0.000000 0.000000 0.000000 0.000000 0.000000 0.000000 3.878395 -0.132254 9.184689 10.972052 6.109194 -1.073822 -11.010179 18.523795 3.073140 0.000000 0.000000 0.000000 11.239560 29.163934 4.159006 0.423683 -30.554376 11.411012 -12.483288 62.784162 20.068769 0.000000 0.000000 0.000000
-71.304841 77.217104 288.276589 -4.280831 -13.573326 -9.684220 0.590245 -0.439399 9.229984 0.433823 -0.326995 0.081697 16.196403 3.710672 1.343378 0.000000 0.000000 0.000000 15.828770 14.448877 -6.037235 65.631333 -21.415534 -3.508475 24.847595 4.402034 9.088538 -23.148167 18.562588 -15.921575 0.000000 0.000000 0.000000 0.000000 0.000000 0.000000 -5.266668 46.564260 6.954041 108.855754 66.824755 -34.875006 -167.214698 18.946738 -107.576433 -159.829720 -9.452897 -88.387383 0.000000 0.000000 0.000000 0.000000 0.000000 0.000000 4.415917 -2.296944 8.875751 12.673638 6.355897 -1.557060 -10.373477 22.456639 1.107720 0.000000 0.000000 0.000000 12.130549 32.237681 2.952738 -0.056881 -31.084512 10.924755 -18.174346 50.554964 20.404101 0.000000 0.000000 0.000000
-71.739935 77.438076 286.298518 -4.779318 -13.583321 -9.684820 0.573035 -0.467865 9.158748 0.431467 -0.328578 0.063484 16.965863 3.053133 1.558176 0.000000 0.000000 0.000000 14.842134 14.105736 -5.294601 62.845843 -19.421870 -5.340707 18.159804 -6.576855 18.298514 -7.557403 27.564599 -23.802055 0.000000 0.000000 0.000000 0.000000 0.000000 0.000000 -5.776217 45.898161 7.013670 114.795793 64.808885 -34.572846 -168.543482 16.112459 -101.259619 -161.668883 -12.420538 -77.702718 0.000000 0.000000 0.000000 0.000000 0.000000 0.000000 4.736868 -4.593221 9.062371 14.031023 7.781047 -2.399369 -8.691539 27.226140 -0.890294 0.000000 0.000000 0.000000 12.146184 34.475715 2.613336 -0.133399 -28.711782 9.620556 -21.511537 39.817071 19.732440 0.000000 0.000000 0.000000
-71.921493 77.418936 283.753912 -5.007688 -13.545441 -9.833218 0.554214 -0.440229 9.276937 0.420929 -0.326487 0.054431 17.040014 2.518260 1.763567 0.000000 0.000000 0.000000 13.919010 13.401260 -4.578276 58.166445 -17.737748 -6.698833 7.864924 -17.326389 22.919509 11.834845 31.083844 -31.664849 0.000000 0.000000 0.000000 0.000000 0.000000 0.000000 -5.376088 46.361074 7.098131 112.491711 63.782112 -30.690734 -158.393262 12.040330 -96.220398 -165.654109 -0.159788 -72.400120 0.000000 0.000000 0.000000 0.000000 0.000000 0.000000 4.814349 -6.509072 9.428529 15.771929 9.420530 -3.454072 -9.060081 28.584882 -1.459680 0.000000 0.000000 0.000000 10.950726 34.533254 3.306870 0.041989 -22.522968 7.254591 -22.782900 30.016045 18.631102 0.000000 0.000000 0.000000
-71.884818 77.201247 281.691047 -5.119750 -13.501621 -9.923670 0.550606 -0.424432 9.352998 0.417055 -0.333534 0.049734 16.884106 1.899737 2.018336 0.000000 0.000000 0.000000 12.834027 13.409031 -4.083859 52.918959 -16.170010 -6.981059 -2.908209 -21.923694 21.078984 23.491966 26.943474 -31.109936 0.000000 0.000000 0.000000 0.000000 0.000000 0.000000 -3.788460 48.123136 7.156733 114.321428 62.578592 -28.917734 -157.335571 16.000483 -91.742117 -166.660036 7.835646 -71.588464 0.000000 0.000000 0.000000 0.000000 0.000000 0.000000 4.889926 -7.835075 9.650591 16.983025 11.357210 -4.426115 -10.016189 27.927089 -1.120791 0.000000 0.000000 0.000000 9.124443 33.227829 4.411193 0.737136 -13.682843 4.359990 -23.117406 22.240016 18.648979 0.000000 0.000000 0.000000
-71.745384 76.850852 278.914471 -5.171743 -13.375068 -10.330207 0.533926 -0.411448 9.758179 0.405433 -0.333410 0.046022 16.789629 1.795451 2.050788 0.000000 0.000000 0.000000 12.163936 13.269384 -3.744033 48.467465 -14.291900 -7.311181 -9.728407 -28.891358 19.793958 33.457430 26.687764 -33.569136 0.000000 0.000000 0.000000 0.000000 0.000000 0.000000 -3.557048 46.645455 6.717798 122.341250 61.268683 -33.169890 -157.928686 22.677178 -87.989269 -163.340011 8.547800 -64.468190 0.000000 0.000000 0.000000 0.000000 0.000000 0.000000 4.840250 -8.298798 10.187285 18.035671 12.409108 -5.127518 -10.279477 28.963425 -1.058981 0.000000 0.000000 0.000000 7.503564 31.933220 5.671199 1.149152 -6.161306 1.866326 -21.522340 19.152844 19.942630 0.000000 0.000000 0.000000
-71.471098 76.317008 276.377206 -5.156767 -13.195471 -10.951663 0.525193 -0.408232 10.389048 0.396679 -0.333104 0.044141 16.476319 2.115754 1.921757 0.000000 0.000000 0.000000 12.252815 14.388571 -4.148271 44.677714 -13.093305 -6.191793 -14.332222 -34.213242 17.777613 33.241684 27.282156 -29.823470 0.000000 0.000000 0.000000 0.000000 0.000000 0.000000 -2.119556 46.659883 6.334882 130.197271 59.358844 -35.618383 -162.729055 39.192681 -82.741456 -153.046397 13.224880 -62.483527 0.000000 0.000000 0.000000 0.000000 0.000000 0.000000 4.935316 -7.855445 10.777137 17.861518 12.176012 -4.962660 -10.929572 27.474201 -0.486648 0.000000 0.000000 0.000000 5.811358 30.860876 7.080829 1.693175 -0.557195 0.037252 -19.745758 20.490115 22.911011 0.000000 0.000000 0.000000
-71.055839 75.750488 273.891387 -5.055789 -12.942320 -11.593216 0.516328 -0.408365 11.054479 0.387851 -0.331774 0.044359 16.000604 2.343774 1.832860 0.000000 0.000000 0.000000 13.064472 14.997063 -4.743292 42.049170 -11.605520 -5.641103 -17.386192 -40.183824 16.562179 38.393102 30.441205 -32.942292 0.000000 0.000000 0.000000 0.000000 0.000000 0.000000 -2.324038 46.400701 6.364338 134.887663 58.203150 -36.019772 19.244554 78.351281 101.813425 -89.600671 23.567817 -67.552137 0.000000 0.000000 0.000000 0.000000 0.000000 0.000000 4.505546 -5.943401 11.463515 17.071585 8.960483 -3.842715 -11.048504 26.368558 -0.258139 0.000000 0.000000 0.000000 4.643644 29.952954 8.242029 1.735523 2.450453 -1.038559 -17.009806 25.608688 26.190435 0.000000 0.000000 0.000000
-70.709947 75.332705 271.193654 -5.087956 -12.579437 -12.293269 0.519973 -0.416394 11.761954 0.385174 -0.343737 0.038325 15.668168 2.296376 1.832797 0.000000 0.000000 0.000000 14.324056 15.219973 -5.379310 41.267330 -11.206996 -5.157347 -20.595452 -43.229134 15.924674 44.953628 33.911407 -38.132321 0.000000 0.000000 0.000000 0.000000 0.000000 0.000000 -2.811540 46.094815 6.502334 137.644440 58.152645 -37.246436 26.132756 28.505488 -167.617220 30.774842 32.641498 178.062740 0.000000 0.000000 0.000000 0.000000 0.000000 0.000000 4.097519 -4.088752 12.235113 16.311452 4.059008 -2.398319 -11.371380 26.442673 0.110195 0.000000 0.000000 0.000000 4.092884 29.353858 9.197302 1.604520 2.839884 -1.252919 -14.328133 29.280145 27.084081 0.000000 0.000000 0.000000
